<svg xmlns="http://www.w3.org/2000/svg" viewBox="0 0 15.11597 11.30736"><defs><style>.cls-1{fill:#db2829;}.cls-2{fill:#ea8a23;}.cls-3{fill:#b12929;}</style></defs><g id="Layer_2" data-name="Layer 2"><g id="Layer_1-2" data-name="Layer 1"><path class="cls-1" d="M6.944.53886a20.41969,20.41969,0,0,0-.71468,2.513c.02184.00723.04414.01414.06478.02147A5.586,5.586,0,0,1,7.442,3.46587,19.4597,19.4597,0,0,1,8.73411,9.36168c-.1416.06043-.66237.30026-1.13811.51737a6.968,6.968,0,0,0,3.67379.50658A24.23908,24.23908,0,0,0,15.116.9027,12.6886,12.6886,0,0,0,6.944.53886"/><path class="cls-2" d="M6.02457,8.92568a13.94186,13.94186,0,0,1,.205-5.87391A14.84785,14.84785,0,0,0,0,2.73559a24.30675,24.30675,0,0,0,3.11181,8.57177,13.47669,13.47669,0,0,0,3.72563-1.08564c.15317-.0665.44657-.19951.75887-.34278L7.59375,9.8781a3.64907,3.64907,0,0,1-1.56918-.95242"/><path class="cls-3" d="M7.442,3.46535A5.59358,5.59358,0,0,0,6.294,3.07292c-.02063-.00733-.04247-.01424-.06477-.02147A13.942,13.942,0,0,0,6.0242,8.92537a3.64907,3.64907,0,0,0,1.56918.95242l.00257.00084c.47574-.21711.99651-.45694,1.13811-.51737A19.46646,19.46646,0,0,0,7.442,3.46535"/></g></g></svg>